<svg width="512" height="512" version="1.1" xmlns="http://www.w3.org/2000/svg"><path fill="rgb(0,0,0)" stroke="rgb(0,0,0)" stroke-width="1" opacity="0.792156862745098" d="M 247.5 32 L 253 32.5 L 247.5 33 L 247.5 32 Z "></path><path fill="rgb(0,0,0)" stroke="rgb(0,0,0)" stroke-width="1" opacity="0.792156862745098" d="M 259.5 32 L 265 32.5 L 259.5 33 L 259.5 32 Z "></path><path fill="rgb(0,0,0)" stroke="rgb(0,0,0)" stroke-width="1" opacity="0.792156862745098" d="M 222.5 41 L 221.5 43 L 222.5 41 Z "></path><path fill="rgb(0,0,0)" stroke="rgb(0,0,0)" stroke-width="1" opacity="0.792156862745098" d="M 289.5 41 L 290.5 43 L 289.5 41 Z "></path><path fill="rgb(0,0,0)" stroke="rgb(0,0,0)" stroke-width="1" opacity="0.792156862745098" d="M 219.5 43 L 218.5 45 L 219.5 43 Z "></path><path fill="rgb(0,0,0)" stroke="rgb(0,0,0)" stroke-width="1" opacity="0.792156862745098" d="M 292.5 43 L 293.5 45 L 292.5 43 Z "></path><path fill="rgb(0,0,0)" stroke="rgb(0,0,0)" stroke-width="1" opacity="0.792156862745098" d="M 215.5 46 L 206.5 56 L 215.5 46 Z "></path><path fill="rgb(0,0,0)" stroke="rgb(0,0,0)" stroke-width="1" opacity="0.792156862745098" d="M 296.5 46 L 305.5 56 L 296.5 46 Z "></path><path fill="rgb(0,0,0)" stroke="rgb(0,0,0)" stroke-width="1" opacity="0.792156862745098" d="M 204.5 58 L 203.5 60 L 204.5 58 Z "></path><path fill="rgb(0,0,0)" stroke="rgb(0,0,0)" stroke-width="1" opacity="0.792156862745098" d="M 307.5 58 L 308.5 60 L 307.5 58 Z "></path><path fill="rgb(0,0,0)" stroke="rgb(0,0,0)" stroke-width="1" opacity="0.792156862745098" d="M 202.5 61 L 201.5 63 L 202.5 61 Z "></path><path fill="rgb(0,0,0)" stroke="rgb(0,0,0)" stroke-width="1" opacity="0.792156862745098" d="M 309.5 61 L 310.5 63 L 309.5 61 Z "></path><path fill="rgb(0,0,0)" stroke="rgb(0,0,0)" stroke-width="1" opacity="0.792156862745098" d="M 237.5 69 L 235.5 72 L 237.5 69 Z "></path><path fill="rgb(0,0,0)" stroke="rgb(0,0,0)" stroke-width="1" opacity="0.792156862745098" d="M 274.5 69 L 276.5 72 L 274.5 69 Z "></path><path fill="rgb(0,0,0)" stroke="rgb(0,0,0)" stroke-width="1" opacity="0.792156862745098" d="M 231.5 75 L 229.5 78 L 231.5 75 Z "></path><path fill="rgb(0,0,0)" stroke="rgb(0,0,0)" stroke-width="1" opacity="0.792156862745098" d="M 280.5 75 L 282.5 78 L 280.5 75 Z "></path><path fill="rgb(0,0,0)" stroke="rgb(0,0,0)" stroke-width="1" opacity="0.792156862745098" d="M 192.5 87 L 193 92.5 L 192 92.5 L 192.5 87 Z "></path><path fill="rgb(0,0,0)" stroke="rgb(0,0,0)" stroke-width="1" opacity="0.792156862745098" d="M 319.5 87 L 320 92.5 L 319 92.5 L 319.5 87 Z "></path><path fill="rgb(0,0,0)" stroke="rgb(0,0,0)" stroke-width="1" opacity="0.792156862745098" d="M 224.5 88 L 225 90.5 L 224 90.5 L 224.5 88 Z "></path><path fill="rgb(0,0,0)" stroke="rgb(0,0,0)" stroke-width="1" opacity="0.792156862745098" d="M 319.5 99 L 320 104.5 L 319 104.5 L 319.5 99 Z "></path><path fill="rgb(0,0,0)" stroke="rgb(0,0,0)" stroke-width="1" opacity="0.792156862745098" d="M 194.5 104 L 199.5 110 L 194.5 104 Z "></path><path fill="rgb(0,0,0)" stroke="rgb(0,0,0)" stroke-width="1" opacity="0.792156862745098" d="M 221.5 104 L 220.5 106 L 221.5 104 Z "></path><path fill="rgb(0,0,0)" stroke="rgb(0,0,0)" stroke-width="1" opacity="0.792156862745098" d="M 218.5 107 L 216.5 110 L 218.5 107 Z "></path><path fill="rgb(0,0,0)" stroke="rgb(0,0,0)" stroke-width="1" opacity="0.792156862745098" d="M 282.5 114 L 280.5 117 L 282.5 114 Z "></path><path fill="rgb(0,0,0)" stroke="rgb(0,0,0)" stroke-width="1" opacity="0.792156862745098" d="M 276.5 120 L 274.5 123 L 276.5 120 Z "></path><path fill="rgb(0,0,0)" stroke="rgb(0,0,0)" stroke-width="1" opacity="0.792156862745098" d="M 310.5 129 L 309.5 131 L 310.5 129 Z "></path><path fill="rgb(0,0,0)" stroke="rgb(0,0,0)" stroke-width="1" opacity="0.792156862745098" d="M 247.5 130 L 246.5 132 L 247.5 130 Z "></path><path fill="rgb(0,0,0)" stroke="rgb(0,0,0)" stroke-width="1" opacity="0.792156862745098" d="M 308.5 132 L 307.5 134 L 308.5 132 Z "></path><path fill="rgb(0,0,0)" stroke="rgb(0,0,0)" stroke-width="1" opacity="0.792156862745098" d="M 243.5 134 L 242.5 136 L 243.5 134 Z "></path><path fill="rgb(0,0,0)" stroke="rgb(0,0,0)" stroke-width="1" opacity="0.792156862745098" d="M 305.5 136 L 296.5 146 L 305.5 136 Z "></path><path fill="rgb(0,0,0)" stroke="rgb(0,0,0)" stroke-width="1" opacity="0.792156862745098" d="M 293.5 147 L 292.5 149 L 293.5 147 Z "></path><path fill="rgb(0,0,0)" stroke="rgb(0,0,0)" stroke-width="1" opacity="0.792156862745098" d="M 290.5 149 L 289.5 151 L 290.5 149 Z "></path><path fill="rgb(0,0,0)" stroke="rgb(0,0,0)" stroke-width="1" opacity="0.792156862745098" d="M 458.5 239 L 459.5 241 L 458.5 239 Z "></path><path fill="rgb(0,0,0)" stroke="rgb(0,0,0)" stroke-width="1" opacity="0.792156862745098" d="M 49.5 242 L 43.5 249 L 49.5 242 Z "></path><path fill="rgb(0,0,0)" stroke="rgb(0,0,0)" stroke-width="1" opacity="0.792156862745098" d="M 462.5 242 L 468.5 249 L 462.5 242 Z "></path><path fill="rgb(0,0,0)" stroke="rgb(0,0,0)" stroke-width="1" opacity="0.792156862745098" d="M 41.5 251 L 40.5 253 L 41.5 251 Z "></path><path fill="rgb(0,0,0)" stroke="rgb(0,0,0)" stroke-width="1" opacity="0.792156862745098" d="M 470.5 251 L 471.5 253 L 470.5 251 Z "></path><path fill="rgb(0,0,0)" stroke="rgb(0,0,0)" stroke-width="1" opacity="0.792156862745098" d="M 472.5 254 L 473.5 256 L 472.5 254 Z "></path><path fill="rgb(0,0,0)" stroke="rgb(0,0,0)" stroke-width="1" opacity="0.792156862745098" d="M 70.5 266 L 66.5 271 L 70.5 266 Z "></path><path fill="rgb(0,0,0)" stroke="rgb(0,0,0)" stroke-width="1" opacity="0.792156862745098" d="M 441.5 266 L 445.5 271 L 441.5 266 Z "></path><path fill="rgb(0,0,0)" stroke="rgb(0,0,0)" stroke-width="1" opacity="0.792156862745098" d="M 32.5 272 L 33 276.5 L 32 276.5 L 32.5 272 Z "></path><path fill="rgb(0,0,0)" stroke="rgb(0,0,0)" stroke-width="1" opacity="0.792156862745098" d="M 479.5 272 L 480 276.5 L 479 276.5 L 479.5 272 Z "></path><path fill="rgb(0,0,0)" stroke="rgb(0,0,0)" stroke-width="1" opacity="0.792156862745098" d="M 119.5 274 L 118.5 276 L 119.5 274 Z "></path><path fill="rgb(0,0,0)" stroke="rgb(0,0,0)" stroke-width="1" opacity="0.792156862745098" d="M 392.5 274 L 393.5 276 L 392.5 274 Z "></path><path fill="rgb(0,0,0)" stroke="rgb(0,0,0)" stroke-width="1" opacity="0.792156862745098" d="M 115.5 278 L 114.5 280 L 115.5 278 Z "></path><path fill="rgb(0,0,0)" stroke="rgb(0,0,0)" stroke-width="1" opacity="0.792156862745098" d="M 396.5 278 L 397.5 280 L 396.5 278 Z "></path><path fill="rgb(0,0,0)" stroke="rgb(0,0,0)" stroke-width="1" opacity="0.792156862745098" d="M 34.5 328 L 35.5 330 L 34.5 328 Z "></path><path fill="rgb(0,0,0)" stroke="rgb(0,0,0)" stroke-width="1" opacity="0.792156862745098" d="M 477.5 328 L 476.5 330 L 477.5 328 Z "></path><path fill="rgb(0,0,0)" stroke="rgb(0,0,0)" stroke-width="1" opacity="0.792156862745098" d="M 38.5 332 L 39.5 334 L 38.5 332 Z "></path><path fill="rgb(0,0,0)" stroke="rgb(0,0,0)" stroke-width="1" opacity="0.792156862745098" d="M 473.5 332 L 472.5 334 L 473.5 332 Z "></path><path fill="rgb(0,0,0)" stroke="rgb(0,0,0)" stroke-width="1" opacity="0.792156862745098" d="M 114.5 456 L 115.5 458 L 114.5 456 Z "></path><path fill="rgb(0,0,0)" stroke="rgb(0,0,0)" stroke-width="1" opacity="0.792156862745098" d="M 397.5 456 L 396.5 458 L 397.5 456 Z "></path><path fill="rgb(0,0,0)" stroke="rgb(0,0,0)" stroke-width="1" opacity="0.792156862745098" d="M 118.5 460 L 119.5 462 L 118.5 460 Z "></path><path fill="rgb(0,0,0)" stroke="rgb(0,0,0)" stroke-width="1" opacity="0.792156862745098" d="M 393.5 460 L 392.5 462 L 393.5 460 Z "></path><path fill="rgb(0,0,0)" stroke="rgb(0,0,0)" stroke-width="1" opacity="0" d="M 0 0 L 512 0 L 512 512 L 0 512 L 0 0 Z M 248 32 Q 228 35 216 46 Q 197 60 192 88 Q 190 99 194 105 Q 197 110 205 112 Q 213 113 217 110 L 223 103 L 225 88 L 232 75 Q 239 67 252 64 Q 269 63 278 72 Q 285 79 288 92 Q 289 109 280 118 L 268 126 L 261 128 L 253 128 L 248 130 Q 242 133 240 141 L 240 180 L 239 181 L 67 233 L 50 242 Q 36 252 32 273 L 32 324 L 34 329 Q 37 334 45 336 L 112 336 L 112 452 L 114 457 Q 117 462 125 464 L 388 464 L 393 462 Q 398 459 400 452 L 400 336 L 468 336 L 473 334 Q 478 331 480 324 L 480 273 Q 477 258 469 249 Q 461 239 449 234 L 365 209 L 287 184 L 274 181 L 272 180 L 272 158 Q 286 155 297 146 Q 315 132 320 105 L 320 88 L 318 79 Q 314 65 306 56 Q 296 43 280 36 L 265 32 L 248 32 Z "></path><path fill="rgb(0,0,0)" stroke="rgb(0,0,0)" stroke-width="1" opacity="0" d="M 254.5 209 L 264.5 211 L 433.5 263 Q 441.9 265.1 446 271.5 L 448 276.5 L 448 304 L 400 304 L 400 284.5 Q 398.2 277.3 392.5 274 L 387.5 272 L 124.5 272 Q 117.3 273.8 114 279.5 L 112 284.5 L 112 304 L 64 304 L 64 276.5 Q 65.8 269.3 71.5 266 L 254.5 209 Z "></path><path fill="rgb(0,0,0)" stroke="rgb(0,0,0)" stroke-width="1" opacity="1" d="M 253.5 32 L 267.5 33 L 280.5 37 Q 297 44 307 57.5 L 317 76.5 L 319 84.5 L 320 98.5 L 317 115.5 L 311 128.5 Q 304.5 139.5 294.5 147 Q 285.5 155 272 157 L 272 180.5 L 274.5 181 L 449.5 235 Q 462.4 240.1 470 250.5 Q 476.3 258.3 479 269.5 Q 477.2 275.8 480 277.5 L 480 321.5 Q 478.8 328.3 474.5 332 L 465.5 336 L 400 336 L 400 449.5 Q 398.8 456.3 394.5 460 L 385.5 464 L 126.5 464 Q 119.8 462.8 116 458.5 L 112 449.5 L 112 336 L 46.5 336 Q 39.8 334.8 36 330.5 L 32 321.5 L 32 277.5 Q 34.8 275.8 33 269.5 L 39 254.5 L 51.5 241 Q 60 235 71.5 232 L 240 181 L 240 142.5 Q 241.3 135.8 245.5 132 L 254.5 128 L 266.5 127 Q 277.2 123.2 283 114.5 L 288 102.5 L 288 89.5 Q 284.8 75.8 274.5 69 L 262.5 64 L 249.5 64 Q 235.8 67.3 229 77.5 L 224 88.5 L 224 97.5 L 220 107 L 213.5 111 L 206.5 112 Q 197.6 110.4 194 103.5 L 192 93.5 L 195 76.5 L 201 63.5 Q 207.5 52.5 217.5 45 L 236.5 35 L 253.5 32 Z M 256 208 L 204 225 L 87 260 L 71 266 L 64 275 L 64 304 L 112 304 L 112 287 L 116 278 Q 120 273 127 272 L 386 272 L 395 276 Q 399 280 400 287 L 400 304 L 448 304 L 448 275 L 446 271 L 442 266 L 426 260 L 256 208 Z "></path></svg>